<svg xmlns="http://www.w3.org/2000/svg" version="1.1" xmlns:xlink="http://www.w3.org/1999/xlink" viewBox="0 0 200 200" width="200" height="200"><metadata><rdf:RDF xmlns:rdf="http://www.w3.org/1999/02/22-rdf-syntax-ns#" xmlns:dc="http://purl.org/dc/elements/1.1/"><rdf:Description><dc:creator>RealFaviconGenerator</dc:creator><dc:source>https://realfavicongenerator.net</dc:source></rdf:Description></rdf:RDF></metadata><rect width="200" height="200" fill="url('#gradient')"></rect><defs><linearGradient id="gradient" gradientTransform="rotate(45 0.5 0.5)"><stop offset="0%" stop-color="#ceaa96"></stop><stop offset="100%" stop-color="#8fa983"></stop></linearGradient></defs><g><g fill="#445272" transform="matrix(3.037073652990608,0,0,3.037073652990608,7.125234616492207,115.27577486288058)" stroke="#c8512e" stroke-width="0.2"><path d="M10.73-5.36L10.73-5.21Q10.73-2.74 9.62-1.27Q8.52 0.20 6.63 0.20L6.63 0.20Q5.18 0.20 4.24-0.87L4.24-0.87L4.24 4.06L0.95 4.06L0.95-10.57L4.02-10.57L4.12-9.59Q5.07-10.76 6.61-10.76L6.61-10.76Q8.56-10.76 9.65-9.32Q10.73-7.88 10.73-5.36L10.73-5.36ZM7.44-5.06L7.44-5.41Q7.44-8.22 5.80-8.22L5.80-8.22Q4.63-8.22 4.24-7.38L4.24-7.38L4.24-3.22Q4.67-2.34 5.82-2.34L5.82-2.34Q7.39-2.34 7.44-5.06L7.44-5.06ZM11.80-5.24L11.80-5.36Q11.80-6.96 12.32-8.19Q12.85-9.42 13.84-10.09Q14.82-10.76 16.13-10.76L16.13-10.76Q17.78-10.76 18.71-9.65L18.71-9.65L18.83-10.57L21.82-10.57L21.82-0.40Q21.82 1.00 21.17 2.03Q20.52 3.06 19.29 3.61Q18.06 4.16 16.44 4.16L16.44 4.16Q15.27 4.16 14.18 3.72Q13.10 3.28 12.52 2.58L12.52 2.58L13.90 0.64Q14.81 1.73 16.32 1.73L16.32 1.73Q18.51 1.73 18.51-0.52L18.51-0.52L18.51-0.85Q17.56 0.20 16.11 0.20L16.11 0.20Q14.18 0.20 12.99-1.28Q11.80-2.76 11.80-5.24L11.80-5.24ZM15.10-5.16L15.10-5.16Q15.10-3.86 15.59-3.10Q16.07-2.34 16.95-2.34L16.95-2.34Q18.02-2.34 18.51-3.06L18.51-3.06L18.51-7.50Q18.03-8.22 16.97-8.22L16.97-8.22Q16.09-8.22 15.60-7.44Q15.10-6.65 15.10-5.16ZM32.79-8.30L32.79-5.66L27.27-5.66L27.27 0L23.84 0L23.84-14.22L33.35-14.22L33.35-11.57L27.27-11.57L27.27-8.30L32.79-8.30ZM40.16-2.97L40.16-2.97Q40.16-3.39 39.72-3.64Q39.28-3.90 38.05-4.17Q36.82-4.44 36.02-4.89Q35.21-5.33 34.79-5.97Q34.38-6.60 34.38-7.42L34.38-7.42Q34.38-8.88 35.58-9.82Q36.78-10.76 38.72-10.76L38.72-10.76Q40.81-10.76 42.08-9.81Q43.35-8.87 43.35-7.32L43.35-7.32L40.05-7.32Q40.05-8.59 38.71-8.59L38.71-8.59Q38.19-8.59 37.84-8.31Q37.49-8.02 37.49-7.59L37.49-7.59Q37.49-7.15 37.92-6.88Q38.35-6.60 39.29-6.43Q40.23-6.25 40.95-6.01L40.95-6.01Q43.33-5.19 43.33-3.07L43.33-3.07Q43.33-1.62 42.05-0.71Q40.76 0.20 38.72 0.20L38.72 0.20Q37.36 0.20 36.30-0.29Q35.23-0.78 34.64-1.62Q34.04-2.46 34.04-3.39L34.04-3.39L37.12-3.39Q37.14-2.66 37.61-2.32Q38.08-1.98 38.81-1.98L38.81-1.98Q39.48-1.98 39.82-2.26Q40.16-2.53 40.16-2.97ZM44.89-10.57L47.98-10.57L48.09-9.33Q49.21-10.76 51.10-10.76L51.10-10.76Q53.11-10.76 53.81-9.17L53.81-9.17Q54.88-10.76 56.91-10.76L56.91-10.76Q60.13-10.76 60.21-6.88L60.21-6.88L60.21 0L56.91 0L56.91-6.67Q56.91-7.48 56.64-7.85Q56.37-8.22 55.64-8.22L55.64-8.22Q54.67-8.22 54.19-7.35L54.19-7.35L54.20-7.22L54.20 0L50.90 0L50.90-6.65Q50.90-7.48 50.63-7.85Q50.37-8.22 49.63-8.22L49.63-8.22Q48.68-8.22 48.18-7.35L48.18-7.35L48.18 0L44.89 0L44.89-10.57Z"></path></g></g></svg>